<?xml version="1.0" encoding="utf-8"?>
<!-- Generator: Adobe Illustrator 27.8.1, SVG Export Plug-In . SVG Version: 6.00 Build 0)  -->
<svg version="1.1" id="Capa_1" xmlns="http://www.w3.org/2000/svg" xmlns:xlink="http://www.w3.org/1999/xlink" x="0px" y="0px"
	 viewBox="0 0 527 141" style="enable-background:new 0 0 527 141;" xml:space="preserve">
<style type="text/css">
	.st0{fill:#E7233C;}
	.st1{fill:#FFFFFF;}
</style>
<g>
	<g>
		<g>
			<path class="st0" d="M34.2,82h-28V5.4h28V82z"/>
			<path class="st0" d="M68.6,83h-1.1c-18.5,0-25.6-8.8-25.6-17.8V64c0-9.3,6-14.7,22.4-16.1l26.7-2.4c2.4-0.3,3.1-1.1,3.1-2.7
				c0-2.1-1.1-4.2-12.1-4.2h-0.4c-11.8,0-12.2,3.9-12.5,5.7h-26v-0.6c0-7.4,2.3-18.5,35.5-18.5h5.8c34.6,0,37,10.3,37,17.8v20.5
				c0,1.5,0.4,2.4,2.4,2.4h3V82h-23.3c-4.8,0-8.1-2.6-9-7.4C91.9,77.2,84.8,83,68.6,83z M94,55.8l-18.5,3.3c-4.8,0.8-6.8,2-6.8,4.7
				V64c0,2.6,1.8,5.7,8.8,5.7C87.7,69.6,94,64,94,58.2L94,55.8L94,55.8z"/>
			<path class="st0" d="M161.7,82h-28V5.4h28V82z"/>
			<g>
				<path class="st1" d="M253,62.5c0,7.5-4.9,21-38,21h-5.9c-29.6,0-39-13.8-39-28.3v-2.3c0-14.2,8.4-27.9,38.4-27.9h6.3
					c32.5,0,38.5,16.4,38.5,29.9v3.8h-60.7c1.3,6.5,6.9,10.8,19.6,10.8h0.1c15.2,0,17.7-5.8,18-7.1H253V62.5z M211.5,37.9
					c-11.5,0-16.7,3.5-18.4,9.4h37.1c-1.5-5.9-6.9-9.4-18.5-9.4H211.5z"/>
			</g>
			<g>
				<path class="st1" d="M252,82L281,53.9l-28-27.3H280l14.5,14.5l14.5-14.5h25.7L307,53.5L335.7,82h-25.9l-16.3-15.9l-16,15.9
					L252,82L252,82z"/>
			</g>
			<g>
				<path class="st1" d="M364.5,26.6v7.9c2.5-2.2,11.3-9.3,28.1-9.3h1.9c25.1,0,33.5,12.6,33.5,27.8v2c0,14.5-8.6,28.3-34.2,28.3
					h-1.6c-16.5,0-25.7-7.1-27.6-9.2v27.2h-23V26.6H364.5z M364.5,54.3c0,6.9,6.5,14.4,20.5,14.4h0.5c14.8,0,19-7.7,19-14.4v-0.4
					c0-7.1-4.1-14.3-19-14.3H385c-14.3,0-20.5,7.2-20.5,14.3V54.3z"/>
			</g>
			<g>
				<path class="st1" d="M472.3,83.5c-32.1,0-39.9-15.9-39.9-28.6V53c0-12.8,7.6-28,39.7-28h7.3c33.8,0,39.7,15.4,39.7,28v1.8
					c0,12.8-5.5,28.6-39.7,28.6H472.3z M495.9,54.3v-0.5c0-6.9-4.4-14-19.9-14h-0.1c-15.6,0-20,7-20,14v0.5c0,6.5,4.3,14.3,20,14.3
					C491.6,68.6,495.9,60.8,495.9,54.3z"/>
			</g>
		</g>
	</g>
	<g>
		<path class="st1" d="M65.4,132.5v-6.8v-6.8h1.4h1.4v5.6v5.6h2.9h2.9v1.2v1.2h-4.3L65.4,132.5L65.4,132.5z"/>
		<path class="st1" d="M83.6,132.7c-0.3,0-0.6,0-0.9-0.1s-0.6-0.1-0.8-0.3c-0.2-0.1-0.5-0.2-0.7-0.4s-0.4-0.4-0.5-0.6
			c-0.1-0.2-0.3-0.5-0.3-0.8s-0.1-0.6-0.1-0.9c0-0.3,0-0.5,0.1-0.8s0.1-0.4,0.2-0.6c0.1-0.2,0.2-0.4,0.4-0.5
			c0.1-0.1,0.3-0.3,0.5-0.4c0.2-0.1,0.4-0.2,0.6-0.3c0.2-0.1,0.4-0.2,0.6-0.2s0.5-0.1,0.7-0.1s0.5-0.1,0.7-0.1
			c0.3,0,0.6-0.1,0.8-0.1s0.4-0.1,0.6-0.1c0.2,0,0.3-0.1,0.5-0.1c0.1,0,0.2-0.1,0.3-0.1c0.1-0.1,0.1-0.1,0.2-0.2s0.1-0.2,0.1-0.3v0
			v0c0-0.2,0-0.4-0.1-0.6c-0.1-0.2-0.2-0.3-0.3-0.4c-0.1-0.1-0.3-0.2-0.5-0.3s-0.4-0.1-0.6-0.1c-0.2,0-0.5,0-0.7,0.1
			s-0.4,0.1-0.5,0.2s-0.3,0.2-0.4,0.4c-0.1,0.1-0.2,0.3-0.2,0.5l-1.3-0.1l-1.3-0.1c0.1-0.3,0.2-0.6,0.3-0.9c0.1-0.3,0.3-0.5,0.5-0.7
			c0.2-0.2,0.4-0.4,0.7-0.6c0.2-0.2,0.5-0.3,0.8-0.4s0.6-0.2,1-0.3c0.4-0.1,0.7-0.1,1.1-0.1c0.3,0,0.6,0,0.8,0.1s0.5,0.1,0.8,0.1
			c0.3,0.1,0.5,0.1,0.7,0.2s0.4,0.2,0.6,0.4s0.4,0.3,0.5,0.5c0.2,0.2,0.3,0.4,0.4,0.6c0.1,0.2,0.2,0.5,0.3,0.7
			c0.1,0.3,0.1,0.5,0.1,0.8v3.4v3.4h-1.3h-1.3v-0.7v-0.7h0h0c-0.1,0.2-0.2,0.3-0.3,0.4s-0.2,0.3-0.4,0.4s-0.3,0.2-0.4,0.3
			c-0.2,0.1-0.3,0.2-0.5,0.2s-0.4,0.1-0.6,0.1C84.1,132.6,83.9,132.7,83.6,132.7z M84.4,130.7c0.2,0,0.4,0,0.6-0.1s0.4-0.1,0.5-0.2
			c0.2-0.1,0.3-0.2,0.4-0.3s0.2-0.2,0.3-0.4c0.1-0.1,0.2-0.3,0.2-0.4c0.1-0.2,0.1-0.3,0.1-0.5v-0.5v-0.5c0,0-0.1,0.1-0.2,0.1
			c-0.1,0-0.1,0.1-0.2,0.1S86,128,86,128c-0.1,0-0.2,0-0.3,0.1c-0.1,0-0.2,0-0.3,0.1c-0.1,0-0.2,0-0.3,0.1c-0.1,0-0.2,0-0.3,0
			s-0.2,0-0.2,0c-0.2,0-0.3,0.1-0.5,0.1c-0.1,0-0.3,0.1-0.4,0.1c-0.1,0.1-0.2,0.1-0.3,0.2c-0.1,0.1-0.2,0.1-0.2,0.2
			c-0.1,0.1-0.1,0.2-0.1,0.3s-0.1,0.2-0.1,0.4c0,0.2,0,0.4,0.1,0.5s0.2,0.3,0.3,0.4c0.1,0.1,0.3,0.2,0.5,0.2S84.2,130.7,84.4,130.7z
			"/>
		<path class="st1" d="M101.8,122.3v1.1v1.1h-3.1h-3.1v-1.1v-1.1h3.1H101.8z M97.1,119.9h1.4h1.4v4.7v4.7c0,0.1,0,0.2,0,0.4
			s0.1,0.2,0.1,0.3c0,0.1,0.1,0.1,0.1,0.2s0.1,0.1,0.2,0.1s0.1,0.1,0.2,0.1s0.2,0,0.3,0c0.1,0,0.1,0,0.2,0s0.1,0,0.2,0
			c0.1,0,0.1,0,0.2,0c0.1,0,0.1,0,0.1,0l0.2,1.1l0.2,1.1c-0.1,0-0.1,0.1-0.2,0.1s-0.2,0.1-0.3,0.1c-0.1,0-0.3,0.1-0.4,0.1
			s-0.3,0-0.5,0c-0.3,0-0.7,0-0.9-0.1s-0.6-0.1-0.8-0.2c-0.2-0.1-0.5-0.2-0.7-0.4s-0.4-0.4-0.5-0.6s-0.2-0.5-0.3-0.7
			s-0.1-0.6-0.1-0.9v-4.9L97.1,119.9L97.1,119.9z"/>
		<path class="st1" d="M109.9,121c-0.2,0-0.4,0-0.6-0.1c-0.2-0.1-0.3-0.2-0.5-0.3c-0.1-0.1-0.3-0.3-0.3-0.5
			c-0.1-0.2-0.1-0.4-0.1-0.6c0-0.2,0-0.4,0.1-0.5s0.2-0.3,0.3-0.5c0.1-0.1,0.3-0.2,0.5-0.3s0.4-0.1,0.6-0.1s0.4,0,0.6,0.1
			c0.2,0.1,0.3,0.2,0.5,0.3c0.1,0.1,0.3,0.3,0.3,0.5s0.1,0.4,0.1,0.5c0,0.2,0,0.4-0.1,0.6s-0.2,0.3-0.3,0.5
			c-0.1,0.1-0.3,0.2-0.5,0.3C110.3,121,110.1,121,109.9,121z M108.4,132.5v-5.1v-5.1h1.4h1.4v5.1v5.1h-1.4H108.4z"/>
		<path class="st1" d="M121.2,126.6v2.9v2.9h-1.4h-1.4v-5.1v-5.1h1.3h1.3v0.9v0.9h0.1h0.1c0.1-0.3,0.3-0.6,0.4-0.8s0.4-0.4,0.7-0.6
			c0.3-0.2,0.6-0.3,0.9-0.4s0.7-0.1,1.1-0.1c0.4,0,0.7,0,1,0.1c0.3,0.1,0.6,0.2,0.9,0.4c0.3,0.1,0.5,0.3,0.7,0.6
			c0.2,0.2,0.4,0.5,0.5,0.8c0.1,0.3,0.2,0.6,0.3,0.9c0.1,0.3,0.1,0.7,0.1,1.1v3.2v3.2h-1.4h-1.4v-3v-3c0-0.3,0-0.6-0.1-0.8
			s-0.2-0.4-0.4-0.6c-0.2-0.2-0.4-0.3-0.6-0.4c-0.2-0.1-0.5-0.1-0.8-0.1c-0.2,0-0.4,0-0.5,0.1s-0.3,0.1-0.5,0.2
			c-0.1,0.1-0.3,0.2-0.4,0.3c-0.1,0.1-0.2,0.3-0.3,0.4c-0.1,0.1-0.1,0.3-0.2,0.5C121.2,126.2,121.2,126.4,121.2,126.6z"/>
		<path class="st1" d="M146.3,132.5h-1.5h-1.5l2.3-6.8l2.3-6.8h1.8h1.8l2.3,6.8l2.3,6.8h-1.5h-1.5l-1.7-5.2l-1.7-5.2h-0.1h-0.1
			l-1.7,5.2L146.3,132.5z M146.1,127.1h3.6h3.6v1.1v1.1h-3.6h-3.6v-1.1V127.1z"/>
		<path class="st1" d="M162.7,132.5v-5.1v-5.1h1.3h1.3v0.9v0.9h0.1h0.1c0.1-0.3,0.2-0.6,0.4-0.8c0.2-0.2,0.4-0.4,0.6-0.6
			c0.2-0.2,0.5-0.3,0.8-0.4s0.6-0.1,1-0.1s0.7,0,1,0.1c0.3,0.1,0.6,0.2,0.8,0.4c0.2,0.2,0.4,0.4,0.6,0.6s0.3,0.5,0.4,0.8h0.1h0.1
			c0.1-0.3,0.2-0.6,0.4-0.8s0.4-0.4,0.7-0.6c0.3-0.2,0.6-0.3,0.9-0.4c0.3-0.1,0.7-0.1,1-0.1c0.5,0,0.9,0.1,1.3,0.2
			c0.4,0.1,0.7,0.4,1,0.7c0.3,0.3,0.5,0.7,0.7,1.1s0.2,0.9,0.2,1.5v3.4v3.4H176h-1.4v-3.1v-3.1c0-0.3,0-0.5-0.1-0.7
			s-0.2-0.4-0.3-0.5s-0.3-0.2-0.5-0.3s-0.4-0.1-0.6-0.1c-0.3,0-0.5,0-0.7,0.1s-0.4,0.2-0.5,0.4s-0.2,0.4-0.3,0.6s-0.1,0.4-0.1,0.7
			v3.1v3.1h-1.4h-1.4v-3.2v-3.2c0-0.2,0-0.5-0.1-0.7s-0.2-0.4-0.3-0.5c-0.1-0.1-0.3-0.3-0.5-0.3c-0.2-0.1-0.4-0.1-0.6-0.1
			c-0.2,0-0.3,0-0.4,0.1s-0.3,0.1-0.4,0.2c-0.1,0.1-0.2,0.2-0.3,0.3c-0.1,0.1-0.2,0.2-0.3,0.4c-0.1,0.1-0.1,0.3-0.2,0.5
			s-0.1,0.3-0.1,0.5v3.1v3.1h-1.4L162.7,132.5L162.7,132.5z"/>
		<path class="st1" d="M189.1,132.7c-0.5,0-1-0.1-1.5-0.2c-0.4-0.1-0.9-0.3-1.2-0.5c-0.4-0.2-0.7-0.5-1-0.8s-0.5-0.6-0.7-1
			c-0.2-0.4-0.4-0.8-0.5-1.3c-0.1-0.5-0.1-1-0.1-1.5c0-0.5,0.1-1,0.1-1.5c0.1-0.5,0.2-0.9,0.5-1.3c0.2-0.4,0.4-0.7,0.7-1.1
			c0.3-0.3,0.6-0.6,1-0.8c0.4-0.2,0.8-0.4,1.2-0.5s0.9-0.2,1.4-0.2c0.3,0,0.7,0,1,0.1s0.6,0.1,0.9,0.2s0.6,0.2,0.8,0.4
			s0.5,0.4,0.7,0.6c0.2,0.2,0.4,0.4,0.6,0.7s0.3,0.6,0.4,0.9c0.1,0.3,0.2,0.7,0.3,1.1s0.1,0.8,0.1,1.2v0.4v0.4h-4.3h-4.3v-0.9v-0.9
			h3h3c0-0.2,0-0.4-0.1-0.6c0-0.2-0.1-0.4-0.2-0.5c-0.1-0.2-0.2-0.3-0.3-0.4s-0.3-0.2-0.4-0.3c-0.2-0.1-0.3-0.2-0.5-0.2
			s-0.4-0.1-0.6-0.1s-0.4,0-0.6,0.1s-0.4,0.1-0.5,0.2s-0.3,0.2-0.4,0.3c-0.1,0.1-0.2,0.3-0.3,0.4s-0.2,0.3-0.2,0.5
			c-0.1,0.2-0.1,0.4-0.1,0.6v0.8v0.8c0,0.2,0,0.5,0.1,0.7s0.1,0.4,0.2,0.6c0.1,0.2,0.2,0.3,0.3,0.5c0.1,0.1,0.3,0.3,0.5,0.4
			c0.2,0.1,0.4,0.2,0.6,0.2s0.4,0.1,0.7,0.1c0.2,0,0.3,0,0.4,0s0.3-0.1,0.4-0.1c0.1,0,0.2-0.1,0.4-0.2c0.1-0.1,0.2-0.1,0.3-0.2
			c0.1-0.1,0.2-0.2,0.2-0.3s0.1-0.2,0.2-0.4l1.3,0.1l1.3,0.1c-0.1,0.3-0.2,0.6-0.3,0.9c-0.1,0.3-0.3,0.5-0.5,0.8
			c-0.2,0.2-0.4,0.4-0.7,0.6s-0.6,0.3-0.9,0.5c-0.3,0.1-0.7,0.2-1,0.3S189.5,132.7,189.1,132.7z"/>
		<path class="st1" d="M200.4,132.5v-5.1v-5.1h1.4h1.4v0.9v0.9h0.1h0.1c0.1-0.3,0.2-0.6,0.4-0.8s0.3-0.4,0.6-0.6s0.4-0.3,0.7-0.4
			c0.3-0.1,0.5-0.1,0.8-0.1c0.1,0,0.1,0,0.2,0s0.1,0,0.2,0s0.2,0,0.2,0s0.1,0,0.2,0v1.2v1.2c-0.1,0-0.1,0-0.2-0.1s-0.2,0-0.3-0.1
			c-0.1,0-0.2,0-0.3,0c-0.1,0-0.2,0-0.3,0c-0.2,0-0.4,0-0.6,0.1c-0.2,0-0.4,0.1-0.5,0.2s-0.3,0.2-0.4,0.3s-0.2,0.3-0.3,0.4
			c-0.1,0.2-0.2,0.3-0.2,0.5s-0.1,0.4-0.1,0.6v2.9v2.9h-1.4L200.4,132.5L200.4,132.5z"/>
		<path class="st1" d="M214.3,121c-0.2,0-0.4,0-0.6-0.1s-0.3-0.2-0.5-0.3s-0.3-0.3-0.3-0.5c-0.1-0.2-0.1-0.4-0.1-0.6
			c0-0.2,0-0.4,0.1-0.5s0.2-0.3,0.3-0.5c0.1-0.1,0.3-0.2,0.5-0.3c0.2-0.1,0.4-0.1,0.6-0.1s0.4,0,0.6,0.1s0.3,0.2,0.5,0.3
			c0.1,0.1,0.3,0.3,0.3,0.5s0.1,0.4,0.1,0.5c0,0.2,0,0.4-0.1,0.6c-0.1,0.2-0.2,0.3-0.3,0.5c-0.1,0.1-0.3,0.2-0.5,0.3
			C214.7,121,214.5,121,214.3,121z M212.9,132.5v-5.1v-5.1h1.4h1.4v5.1v5.1h-1.4H212.9z"/>
		<path class="st1" d="M227.4,132.7c-0.5,0-1-0.1-1.5-0.2s-0.9-0.3-1.2-0.5c-0.4-0.2-0.7-0.5-1-0.8c-0.3-0.3-0.5-0.7-0.7-1.1
			s-0.4-0.8-0.5-1.3s-0.1-0.9-0.1-1.4c0-0.5,0-1,0.1-1.5c0.1-0.5,0.2-0.9,0.5-1.3c0.2-0.4,0.5-0.7,0.7-1.1c0.3-0.3,0.6-0.6,1-0.8
			c0.4-0.2,0.8-0.4,1.2-0.5s0.9-0.2,1.4-0.2c0.4,0,0.9,0,1.2,0.1s0.8,0.2,1.1,0.4s0.6,0.4,0.9,0.6s0.5,0.5,0.7,0.8s0.3,0.6,0.5,0.9
			c0.1,0.3,0.2,0.7,0.2,1.1h-1.3h-1.3c0-0.2-0.1-0.5-0.2-0.7s-0.2-0.4-0.4-0.5c-0.2-0.2-0.3-0.3-0.5-0.4s-0.4-0.1-0.7-0.1
			c-0.2,0-0.4,0-0.6,0.1c-0.2,0.1-0.4,0.1-0.5,0.3c-0.2,0.1-0.3,0.3-0.4,0.4c-0.1,0.2-0.2,0.4-0.3,0.6s-0.2,0.5-0.2,0.8
			c0,0.3-0.1,0.6-0.1,0.9c0,0.3,0,0.6,0.1,0.9c0,0.3,0.1,0.5,0.2,0.8c0.1,0.2,0.2,0.4,0.3,0.6c0.1,0.2,0.3,0.3,0.4,0.4
			s0.3,0.2,0.5,0.3s0.4,0.1,0.6,0.1c0.2,0,0.3,0,0.5-0.1c0.1,0,0.3-0.1,0.4-0.1c0.1-0.1,0.2-0.1,0.4-0.2c0.1-0.1,0.2-0.2,0.3-0.3
			c0.1-0.1,0.1-0.3,0.2-0.4s0.1-0.3,0.1-0.5h1.3h1.3c0,0.4-0.1,0.8-0.2,1.1c-0.1,0.3-0.2,0.7-0.4,0.9s-0.4,0.6-0.7,0.8
			s-0.5,0.4-0.9,0.6c-0.3,0.2-0.7,0.3-1.1,0.4C228.2,132.6,227.8,132.7,227.4,132.7z"/>
		<path class="st1" d="M241.4,132.7c-0.3,0-0.6,0-0.9-0.1s-0.6-0.1-0.8-0.3c-0.2-0.1-0.5-0.2-0.7-0.4c-0.2-0.2-0.4-0.4-0.5-0.6
			c-0.1-0.2-0.3-0.5-0.3-0.8c-0.1-0.3-0.1-0.6-0.1-0.9c0-0.3,0-0.5,0.1-0.8s0.1-0.4,0.2-0.6s0.2-0.4,0.4-0.5s0.3-0.3,0.5-0.4
			c0.2-0.1,0.4-0.2,0.6-0.3s0.4-0.2,0.6-0.2c0.2-0.1,0.5-0.1,0.7-0.1c0.2,0,0.5-0.1,0.7-0.1c0.3,0,0.6-0.1,0.8-0.1s0.5-0.1,0.6-0.1
			c0.2,0,0.3-0.1,0.5-0.1s0.2-0.1,0.3-0.1c0.1-0.1,0.1-0.1,0.2-0.2c0-0.1,0.1-0.2,0.1-0.3v0v0c0-0.2,0-0.4-0.1-0.6
			c-0.1-0.2-0.2-0.3-0.3-0.4s-0.3-0.2-0.5-0.3s-0.4-0.1-0.6-0.1c-0.2,0-0.5,0-0.7,0.1s-0.4,0.1-0.5,0.2s-0.3,0.2-0.4,0.4
			s-0.2,0.3-0.2,0.5l-1.3-0.1l-1.3-0.1c0.1-0.3,0.2-0.6,0.3-0.9c0.1-0.3,0.3-0.5,0.5-0.7c0.2-0.2,0.4-0.4,0.7-0.6
			c0.2-0.2,0.5-0.3,0.8-0.4s0.6-0.2,1-0.3s0.7-0.1,1.1-0.1c0.3,0,0.6,0,0.8,0.1s0.5,0.1,0.8,0.1c0.3,0.1,0.5,0.1,0.7,0.2
			s0.5,0.2,0.6,0.4c0.2,0.1,0.4,0.3,0.5,0.5c0.2,0.2,0.3,0.4,0.4,0.6c0.1,0.2,0.2,0.5,0.3,0.7s0.1,0.5,0.1,0.8v3.4v3.4h-1.3h-1.3
			v-0.7v-0.7h0h0c-0.1,0.2-0.2,0.3-0.3,0.4c-0.1,0.1-0.2,0.3-0.4,0.4s-0.3,0.2-0.5,0.3c-0.2,0.1-0.3,0.2-0.5,0.2s-0.4,0.1-0.6,0.1
			C241.9,132.6,241.7,132.7,241.4,132.7z M242.2,130.7c0.2,0,0.4,0,0.6-0.1c0.2,0,0.4-0.1,0.5-0.2c0.2-0.1,0.3-0.2,0.4-0.3
			c0.1-0.1,0.2-0.2,0.3-0.4s0.2-0.3,0.2-0.4c0-0.2,0.1-0.3,0.1-0.5v-0.5v-0.5c0,0-0.1,0.1-0.2,0.1c-0.1,0-0.1,0.1-0.2,0.1
			s-0.2,0.1-0.2,0.1c-0.1,0-0.2,0-0.3,0.1c-0.1,0-0.2,0-0.3,0.1c-0.1,0-0.2,0-0.3,0.1s-0.2,0-0.3,0s-0.2,0-0.2,0
			c-0.2,0-0.3,0.1-0.5,0.1c-0.1,0-0.3,0.1-0.4,0.1c-0.1,0.1-0.2,0.1-0.3,0.2c-0.1,0.1-0.2,0.1-0.2,0.2c-0.1,0.1-0.1,0.2-0.1,0.3
			s0,0.2,0,0.4c0,0.2,0,0.4,0.1,0.5s0.2,0.3,0.3,0.4c0.1,0.1,0.3,0.2,0.5,0.2S242,130.7,242.2,130.7z"/>
		<path class="st1" d="M263.4,132.5v-6.8v-6.8h1.4h1.4v5.6v5.6h2.9h2.9v1.2v1.2h-4.3L263.4,132.5L263.4,132.5z"/>
		<path class="st1" d="M280.1,121c-0.2,0-0.4,0-0.6-0.1s-0.3-0.2-0.5-0.3s-0.3-0.3-0.3-0.5c-0.1-0.2-0.1-0.4-0.1-0.6
			c0-0.2,0-0.4,0.1-0.5s0.2-0.3,0.3-0.5c0.1-0.1,0.3-0.2,0.5-0.3s0.4-0.1,0.6-0.1s0.4,0,0.6,0.1s0.3,0.2,0.5,0.3
			c0.1,0.1,0.3,0.3,0.3,0.5s0.1,0.4,0.1,0.5c0,0.2,0,0.4-0.1,0.6c-0.1,0.2-0.2,0.3-0.3,0.5c-0.1,0.1-0.3,0.2-0.5,0.3
			C280.5,121,280.3,121,280.1,121z M278.7,132.5v-5.1v-5.1h1.4h1.4v5.1v5.1h-1.4H278.7z"/>
		<path class="st1" d="M298.1,122.3l-1.8,5.1l-1.8,5.1H293h-1.6l-1.8-5.1l-1.8-5.1h1.5h1.5l1,3.6l1,3.6h0h0.1l1-3.6l1-3.6h1.5H298.1
			z"/>
		<path class="st1" d="M308.6,132.7c-0.5,0-1-0.1-1.5-0.2c-0.5-0.1-0.9-0.3-1.2-0.5c-0.4-0.2-0.7-0.5-1-0.8s-0.5-0.6-0.7-1
			c-0.2-0.4-0.4-0.8-0.5-1.3c-0.1-0.5-0.1-1-0.1-1.5c0-0.5,0-1,0.1-1.5s0.2-0.9,0.5-1.3c0.2-0.4,0.5-0.7,0.7-1.1
			c0.3-0.3,0.6-0.6,1-0.8c0.4-0.2,0.8-0.4,1.2-0.5c0.4-0.1,0.9-0.2,1.4-0.2c0.3,0,0.7,0,1,0.1s0.6,0.1,0.9,0.2s0.6,0.2,0.8,0.4
			s0.5,0.4,0.7,0.6c0.2,0.2,0.4,0.4,0.6,0.7s0.3,0.6,0.4,0.9c0.1,0.3,0.2,0.7,0.3,1.1s0.1,0.8,0.1,1.2v0.4v0.4H309h-4.3v-0.9v-0.9h3
			h3c0-0.2,0-0.4-0.1-0.6c0-0.2-0.1-0.4-0.2-0.5c-0.1-0.2-0.2-0.3-0.3-0.4s-0.3-0.2-0.4-0.3c-0.2-0.1-0.3-0.2-0.5-0.2
			s-0.4-0.1-0.6-0.1s-0.4,0-0.6,0.1s-0.4,0.1-0.5,0.2s-0.3,0.2-0.4,0.3c-0.1,0.1-0.2,0.3-0.3,0.4s-0.2,0.3-0.2,0.5
			c0,0.2-0.1,0.4-0.1,0.6v0.8v0.8c0,0.2,0,0.5,0.1,0.7c0,0.2,0.1,0.4,0.2,0.6c0.1,0.2,0.2,0.3,0.3,0.5s0.3,0.3,0.5,0.4
			c0.2,0.1,0.4,0.2,0.6,0.2s0.4,0.1,0.7,0.1c0.2,0,0.3,0,0.5,0s0.3-0.1,0.4-0.1c0.1,0,0.2-0.1,0.4-0.2s0.2-0.1,0.3-0.2
			c0.1-0.1,0.2-0.2,0.2-0.3s0.1-0.2,0.2-0.4l1.3,0.1l1.3,0.1c-0.1,0.3-0.2,0.6-0.3,0.9c-0.1,0.3-0.3,0.5-0.5,0.8
			c-0.2,0.2-0.4,0.4-0.7,0.6s-0.5,0.3-0.9,0.5c-0.3,0.1-0.7,0.2-1,0.3C309.5,132.6,309.1,132.7,308.6,132.7z"/>
		<path class="st1" d="M324.6,132.7c-0.5,0-1-0.1-1.5-0.2s-0.9-0.3-1.2-0.5c-0.4-0.2-0.7-0.5-1-0.8c-0.3-0.3-0.5-0.7-0.7-1.1
			s-0.4-0.8-0.5-1.3s-0.1-0.9-0.1-1.4c0-0.5,0-1,0.1-1.5s0.2-0.9,0.5-1.3c0.2-0.4,0.5-0.7,0.7-1.1c0.3-0.3,0.6-0.6,1-0.8
			c0.4-0.2,0.8-0.4,1.2-0.5s0.9-0.2,1.4-0.2c0.4,0,0.9,0,1.2,0.1s0.8,0.2,1.1,0.4s0.6,0.4,0.9,0.6s0.5,0.5,0.7,0.8s0.3,0.6,0.5,0.9
			c0.1,0.3,0.2,0.7,0.2,1.1h-1.3h-1.3c0-0.2-0.1-0.5-0.2-0.7s-0.2-0.4-0.4-0.5c-0.2-0.2-0.3-0.3-0.5-0.4s-0.4-0.1-0.7-0.1
			c-0.2,0-0.4,0-0.6,0.1c-0.2,0.1-0.4,0.1-0.5,0.3c-0.2,0.1-0.3,0.3-0.4,0.4c-0.1,0.2-0.2,0.4-0.3,0.6s-0.2,0.5-0.2,0.8
			c0,0.3-0.1,0.6-0.1,0.9c0,0.3,0,0.6,0.1,0.9c0,0.3,0.1,0.5,0.2,0.8c0.1,0.2,0.2,0.4,0.3,0.6c0.1,0.2,0.3,0.3,0.4,0.4
			s0.3,0.2,0.5,0.3s0.4,0.1,0.6,0.1c0.2,0,0.3,0,0.5-0.1s0.3-0.1,0.4-0.1c0.1-0.1,0.2-0.1,0.4-0.2c0.1-0.1,0.2-0.2,0.3-0.3
			c0.1-0.1,0.1-0.3,0.2-0.4s0.1-0.3,0.1-0.5h1.3h1.3c0,0.4-0.1,0.8-0.2,1.1c-0.1,0.3-0.2,0.7-0.4,0.9s-0.4,0.6-0.7,0.8
			s-0.5,0.4-0.9,0.6c-0.3,0.2-0.7,0.3-1.1,0.4S325,132.7,324.6,132.7z"/>
		<path class="st1" d="M338.6,132.7c-0.3,0-0.6,0-0.9-0.1s-0.6-0.1-0.8-0.3c-0.2-0.1-0.5-0.2-0.7-0.4c-0.2-0.2-0.4-0.4-0.5-0.6
			c-0.1-0.2-0.3-0.5-0.3-0.8c-0.1-0.3-0.1-0.6-0.1-0.9c0-0.3,0-0.5,0.1-0.8s0.1-0.4,0.2-0.6s0.2-0.4,0.4-0.5
			c0.1-0.1,0.3-0.3,0.5-0.4c0.2-0.1,0.4-0.2,0.6-0.3s0.4-0.2,0.6-0.2c0.2-0.1,0.5-0.1,0.7-0.1s0.5-0.1,0.7-0.1
			c0.3,0,0.6-0.1,0.8-0.1s0.5-0.1,0.6-0.1c0.2,0,0.3-0.1,0.5-0.1c0.1,0,0.2-0.1,0.3-0.1c0.1-0.1,0.1-0.1,0.2-0.2
			c0-0.1,0.1-0.2,0.1-0.3v0v0c0-0.2,0-0.4-0.1-0.6c-0.1-0.2-0.2-0.3-0.3-0.4s-0.3-0.2-0.5-0.3s-0.4-0.1-0.6-0.1
			c-0.2,0-0.5,0-0.7,0.1c-0.2,0.1-0.4,0.1-0.5,0.2s-0.3,0.2-0.4,0.4s-0.2,0.3-0.2,0.5l-1.3-0.1l-1.3-0.1c0.1-0.3,0.2-0.6,0.3-0.9
			c0.1-0.3,0.3-0.5,0.5-0.7c0.2-0.2,0.4-0.4,0.7-0.6c0.2-0.2,0.5-0.3,0.8-0.4s0.6-0.2,1-0.3c0.4-0.1,0.7-0.1,1.1-0.1
			c0.3,0,0.6,0,0.8,0.1s0.5,0.1,0.8,0.1c0.3,0.1,0.5,0.1,0.7,0.2s0.5,0.2,0.6,0.4c0.2,0.1,0.4,0.3,0.5,0.5c0.2,0.2,0.3,0.4,0.4,0.6
			c0.1,0.2,0.2,0.5,0.3,0.7s0.1,0.5,0.1,0.8v3.4v3.4h-1.3h-1.3v-0.7v-0.7h0h0c-0.1,0.2-0.2,0.3-0.3,0.4c-0.1,0.1-0.2,0.3-0.4,0.4
			c-0.1,0.1-0.3,0.2-0.5,0.3c-0.2,0.1-0.3,0.2-0.5,0.2s-0.4,0.1-0.6,0.1C339.1,132.6,338.9,132.7,338.6,132.7z M339.5,130.7
			c0.2,0,0.4,0,0.6-0.1c0.2,0,0.4-0.1,0.5-0.2c0.2-0.1,0.3-0.2,0.4-0.3s0.2-0.2,0.3-0.4s0.2-0.3,0.2-0.4c0-0.2,0.1-0.3,0.1-0.5v-0.5
			v-0.5c0,0-0.1,0.1-0.2,0.1c-0.1,0-0.1,0.1-0.2,0.1c-0.1,0-0.2,0.1-0.2,0.1s-0.2,0-0.3,0.1c-0.1,0-0.2,0-0.3,0.1
			c-0.1,0-0.2,0-0.3,0.1s-0.2,0-0.3,0s-0.2,0-0.2,0c-0.2,0-0.3,0.1-0.5,0.1c-0.1,0-0.3,0.1-0.4,0.1c-0.1,0.1-0.2,0.1-0.3,0.2
			c-0.1,0.1-0.2,0.1-0.2,0.2c-0.1,0.1-0.1,0.2-0.1,0.3s0,0.2,0,0.4c0,0.2,0,0.4,0.1,0.5s0.2,0.3,0.3,0.4c0.1,0.1,0.3,0.2,0.5,0.2
			S339.2,130.7,339.5,130.7z"/>
		<path class="st1" d="M351.4,132.5v-5.1v-5.1h1.3h1.3v0.9v0.9h0.1h0.1c0.1-0.3,0.2-0.6,0.4-0.8c0.2-0.2,0.4-0.4,0.6-0.6
			c0.2-0.2,0.5-0.3,0.8-0.4c0.3-0.1,0.6-0.1,1-0.1s0.7,0,1,0.1c0.3,0.1,0.6,0.2,0.8,0.4s0.5,0.4,0.6,0.6c0.2,0.2,0.3,0.5,0.4,0.8h0
			h0c0.1-0.3,0.2-0.6,0.4-0.8c0.2-0.2,0.4-0.4,0.7-0.6c0.3-0.2,0.6-0.3,0.9-0.4c0.3-0.1,0.7-0.1,1-0.1c0.5,0,0.9,0.1,1.3,0.2
			s0.7,0.4,1,0.7c0.3,0.3,0.5,0.7,0.7,1.1c0.1,0.4,0.2,0.9,0.2,1.5v3.4v3.4h-1.4h-1.4v-3.1v-3.1c0-0.3,0-0.5-0.1-0.7
			c-0.1-0.2-0.2-0.4-0.3-0.5s-0.3-0.2-0.5-0.3s-0.4-0.1-0.6-0.1c-0.3,0-0.5,0-0.7,0.1c-0.2,0.1-0.4,0.2-0.5,0.4s-0.2,0.4-0.3,0.6
			c-0.1,0.2-0.1,0.4-0.1,0.7v3.1v3.1h-1.4h-1.4v-3.2v-3.2c0-0.2,0-0.5-0.1-0.7c-0.1-0.2-0.2-0.4-0.3-0.5c-0.1-0.1-0.3-0.3-0.5-0.3
			c-0.2-0.1-0.4-0.1-0.6-0.1c-0.2,0-0.3,0-0.5,0.1s-0.3,0.1-0.4,0.2c-0.1,0.1-0.2,0.2-0.3,0.3s-0.2,0.2-0.3,0.4
			c-0.1,0.1-0.1,0.3-0.2,0.5s0,0.3,0,0.5v3.1v3.1h-1.4L351.4,132.5L351.4,132.5z"/>
		<path class="st1" d="M381.6,125.2l-1.3,0.1l-1.3,0.1c0-0.1-0.1-0.2-0.1-0.3c0-0.1-0.1-0.2-0.2-0.3s-0.2-0.2-0.2-0.2
			c-0.1-0.1-0.2-0.1-0.3-0.2c-0.1-0.1-0.2-0.1-0.4-0.1s-0.3,0-0.5,0c-0.2,0-0.4,0-0.6,0.1s-0.4,0.1-0.5,0.2
			c-0.1,0.1-0.3,0.2-0.3,0.3s-0.1,0.3-0.1,0.4c0,0.1,0,0.2,0.1,0.3c0,0.1,0.1,0.2,0.2,0.3s0.2,0.2,0.4,0.2c0.2,0.1,0.4,0.1,0.6,0.2
			l0.9,0.2l0.9,0.2c0.5,0.1,0.9,0.2,1.3,0.4s0.7,0.4,0.9,0.6c0.2,0.2,0.4,0.5,0.5,0.8s0.2,0.6,0.2,1c0,0.3,0,0.6-0.1,0.9
			c-0.1,0.3-0.2,0.6-0.4,0.8c-0.2,0.2-0.4,0.5-0.7,0.7s-0.6,0.4-0.9,0.5s-0.7,0.2-1.1,0.3c-0.4,0.1-0.8,0.1-1.2,0.1
			c-0.7,0-1.3-0.1-1.8-0.2s-1-0.4-1.4-0.6s-0.7-0.6-1-1c-0.2-0.4-0.4-0.8-0.5-1.3l1.4-0.1l1.4-0.1c0,0.2,0.1,0.4,0.2,0.5
			c0.1,0.2,0.2,0.3,0.4,0.4c0.2,0.1,0.3,0.2,0.5,0.2s0.4,0.1,0.7,0.1s0.5,0,0.7-0.1s0.4-0.1,0.5-0.2c0.1-0.1,0.3-0.2,0.3-0.3
			s0.1-0.3,0.1-0.4c0-0.1,0-0.2-0.1-0.4s-0.1-0.2-0.2-0.3s-0.2-0.1-0.4-0.2c-0.2-0.1-0.4-0.1-0.6-0.2l-0.9-0.2l-0.9-0.2
			c-0.5-0.1-0.9-0.2-1.3-0.4c-0.4-0.2-0.7-0.4-0.9-0.6c-0.2-0.2-0.4-0.5-0.5-0.8s-0.2-0.7-0.2-1c0-0.3,0-0.6,0.1-0.9
			s0.2-0.5,0.4-0.8c0.2-0.2,0.4-0.4,0.6-0.6c0.2-0.2,0.5-0.3,0.9-0.5c0.3-0.1,0.7-0.2,1-0.3c0.4-0.1,0.8-0.1,1.2-0.1
			c0.6,0,1.2,0.1,1.7,0.2c0.5,0.1,0.9,0.3,1.3,0.6s0.7,0.6,0.9,1C381.4,124.3,381.6,124.8,381.6,125.2z"/>
		<path class="st1" d="M397.7,132.5v-6.8v-6.8h4.6h4.6v1.2v1.2h-3.1h-3.1v1.6v1.6h2.9h2.9v1.2v1.2h-2.9h-2.9v1.6v1.6h3.1h3.1v1.2
			v1.2h-4.6L397.7,132.5L397.7,132.5z"/>
		<path class="st1" d="M416.2,122.3l0.9,1.8l0.9,1.8l1-1.8l1-1.8h1.4h1.4l-1.5,2.5l-1.5,2.5l1.5,2.5l1.5,2.5h-1.4h-1.4l-1-1.8
			l-1-1.8l-1,1.8l-1,1.8h-1.5h-1.5l1.5-2.5l1.5-2.5l-1.5-2.5l-1.5-2.5h1.5H416.2z"/>
		<path class="st1" d="M429.4,136.3v-7v-7h1.4h1.4v0.9v0.9h0.1h0.1c0.1-0.1,0.1-0.3,0.2-0.4s0.2-0.3,0.3-0.4s0.2-0.3,0.4-0.4
			c0.1-0.1,0.3-0.2,0.5-0.3c0.2-0.1,0.4-0.2,0.6-0.2c0.2-0.1,0.5-0.1,0.8-0.1c0.4,0,0.7,0.1,1.1,0.1c0.3,0.1,0.7,0.2,1,0.4
			c0.3,0.2,0.6,0.4,0.8,0.7c0.2,0.3,0.5,0.6,0.7,1c0.2,0.4,0.3,0.8,0.4,1.3c0.1,0.5,0.1,1,0.1,1.6c0,0.6,0,1.1-0.1,1.6
			c-0.1,0.5-0.2,0.9-0.4,1.3s-0.4,0.7-0.6,1c-0.2,0.3-0.5,0.5-0.8,0.7c-0.3,0.2-0.6,0.4-1,0.4c-0.4,0.1-0.7,0.1-1.1,0.1
			c-0.3,0-0.5,0-0.8-0.1c-0.2-0.1-0.4-0.1-0.6-0.2s-0.4-0.2-0.5-0.3c-0.2-0.1-0.3-0.2-0.4-0.4c-0.1-0.1-0.2-0.3-0.3-0.4
			s-0.2-0.3-0.2-0.4h0h0v2.7v2.7h-1.4L429.4,136.3L429.4,136.3z M432.1,127.4c0,0.3,0,0.6,0.1,0.9c0,0.3,0.1,0.5,0.2,0.7
			c0.1,0.2,0.2,0.4,0.3,0.6s0.3,0.3,0.4,0.4c0.2,0.1,0.3,0.2,0.5,0.3s0.4,0.1,0.6,0.1s0.4,0,0.6-0.1c0.2-0.1,0.4-0.2,0.5-0.3
			c0.2-0.1,0.3-0.3,0.4-0.4c0.1-0.2,0.2-0.4,0.3-0.6c0.1-0.2,0.1-0.5,0.2-0.7s0.1-0.5,0.1-0.8c0-0.3,0-0.6-0.1-0.8s-0.1-0.5-0.2-0.7
			s-0.2-0.4-0.3-0.6s-0.3-0.3-0.4-0.4c-0.2-0.1-0.3-0.2-0.5-0.3c-0.2-0.1-0.4-0.1-0.6-0.1s-0.4,0-0.6,0.1s-0.4,0.1-0.5,0.3
			c-0.2,0.1-0.3,0.3-0.4,0.4c-0.1,0.2-0.2,0.4-0.3,0.6c-0.1,0.2-0.1,0.5-0.2,0.7C432.2,126.8,432.1,127.1,432.1,127.4z"/>
		<path class="st1" d="M450.6,132.7c-0.5,0-1-0.1-1.4-0.2s-0.9-0.3-1.2-0.5s-0.7-0.5-1-0.8c-0.3-0.3-0.5-0.7-0.7-1.1
			s-0.4-0.8-0.5-1.3c-0.1-0.5-0.1-0.9-0.1-1.5s0-1,0.1-1.5c0.1-0.5,0.2-0.9,0.5-1.3c0.2-0.4,0.5-0.7,0.7-1.1c0.3-0.3,0.6-0.6,1-0.8
			c0.4-0.2,0.8-0.4,1.2-0.5s0.9-0.2,1.4-0.2c0.5,0,1,0.1,1.4,0.2c0.4,0.1,0.9,0.3,1.2,0.5s0.7,0.5,1,0.8c0.3,0.3,0.5,0.7,0.7,1.1
			c0.2,0.4,0.4,0.8,0.5,1.3c0.1,0.5,0.1,0.9,0.1,1.5s0,1-0.1,1.5c-0.1,0.5-0.2,0.9-0.5,1.3s-0.5,0.7-0.7,1.1c-0.3,0.3-0.6,0.6-1,0.8
			c-0.4,0.2-0.8,0.4-1.2,0.5C451.6,132.6,451.1,132.7,450.6,132.7z M450.6,130.5c0.2,0,0.5,0,0.6-0.1c0.2-0.1,0.4-0.2,0.5-0.3
			s0.3-0.3,0.4-0.5s0.2-0.4,0.3-0.6s0.1-0.5,0.2-0.7c0-0.3,0.1-0.5,0.1-0.8s0-0.6-0.1-0.8c0-0.3-0.1-0.5-0.2-0.7
			c-0.1-0.2-0.2-0.4-0.3-0.6s-0.3-0.3-0.4-0.5c-0.2-0.1-0.3-0.2-0.5-0.3c-0.2-0.1-0.4-0.1-0.6-0.1c-0.2,0-0.5,0-0.6,0.1
			c-0.2,0.1-0.4,0.2-0.5,0.3s-0.3,0.3-0.4,0.5c-0.1,0.2-0.2,0.4-0.3,0.6s-0.1,0.5-0.2,0.7c0,0.3-0.1,0.5-0.1,0.8s0,0.6,0.1,0.8
			c0,0.3,0.1,0.5,0.2,0.7c0.1,0.2,0.2,0.4,0.3,0.6s0.3,0.3,0.4,0.5s0.3,0.2,0.5,0.3S450.4,130.5,450.6,130.5z"/>
	</g>
</g>
</svg>
